<mxfile host="app.diagrams.net" modified="2024-03-28T13:02:41.607Z" agent="Mozilla/5.0 (Macintosh; Intel Mac OS X 10_15_7) AppleWebKit/537.36 (KHTML, like Gecko) Chrome/123.0.0.0 Safari/537.36" etag="Gq9n3QbMNZejOPna5YKi" version="24.2.0" type="device">
  <diagram name="PÃ¡gina-1" id="7c4TDgKcwaSpcDGpxGAW">
    <mxGraphModel dx="1365" dy="1400" grid="0" gridSize="10" guides="1" tooltips="1" connect="1" arrows="1" fold="1" page="0" pageScale="1" pageWidth="827" pageHeight="1169" math="0" shadow="0">
      <root>
        <mxCell id="0" />
        <mxCell id="1" parent="0" />
        <mxCell id="e_6_paFqFRzDJT7VqNRb-2" value="" style="shape=stencil(nVPLboMwEPyWHnwkMusgNceIhlsPVfsDVjDBqoMJbELar+/axi0pqKqCjB8zu3hmtTCR95cDA349mqZn4okB1IgtE1sGBY1hGFaDWNmOggrgnNPiM4CSBl1iHZLAMQ6rlT7UGMAUPCh2jNPnuBsif0gS2hS2KS2tpaLJSJr2smsVuh0F3KZ0ao9O4/jV8aaPcBR8JiZ9XBATsUobExAGoljn2RoC4QwvSX21Rrbyv1pbSSooNlzxTFunlzuV/IXeTRahdBOJu2TtUJ/OQcQdRYRfRcxmRcwWaghLYiv/BKLHzr6rb4rHrgh4Mm2Yv929qSu6/lBNtKZ+/M68IUVPvGU33qKRyjaYVPKozUhsOy3NhOv1p4qNu+BzNDO92Y98rPlED7nykkKsP7ufxh+/AA==);whiteSpace=wrap;html=1;" vertex="1" parent="1">
          <mxGeometry x="20" y="20" width="120" height="120" as="geometry" />
        </mxCell>
        <mxCell id="e_6_paFqFRzDJT7VqNRb-3" value="" style="shape=image;verticalLabelPosition=bottom;labelBackgroundColor=default;verticalAlign=top;aspect=fixed;imageAspect=0;image=https://imgs.search.brave.com/qaBwOZfYAqEolkYkvVw44lUgN6bMS3bjYQJhOxt_rzA/rs:fit:860:0:0/g:ce/aHR0cHM6Ly9pbWFn/ZXMudmV4ZWxzLmNv/bS9tZWRpYS91c2Vy/cy8zLzI3NjY2MS9p/c29sYXRlZC9wcmV2/aWV3LzYxNGZhMmY2/MDAwZTgxMmNiMDEz/YjgyZDVlZDBlYjIx/LWNhcnBldGEtYXp1/bC1jdWFkcmljdWxh/ZGEucG5n;" vertex="1" parent="1">
          <mxGeometry x="345.05" y="-349" width="54" height="54" as="geometry" />
        </mxCell>
        <mxCell id="e_6_paFqFRzDJT7VqNRb-49" style="edgeStyle=none;curved=1;rounded=0;orthogonalLoop=1;jettySize=auto;html=1;entryX=1;entryY=0.5;entryDx=0;entryDy=0;fontSize=12;startSize=8;endSize=8;" edge="1" parent="1" source="e_6_paFqFRzDJT7VqNRb-4" target="e_6_paFqFRzDJT7VqNRb-5">
          <mxGeometry relative="1" as="geometry" />
        </mxCell>
        <mxCell id="e_6_paFqFRzDJT7VqNRb-50" style="edgeStyle=none;curved=1;rounded=0;orthogonalLoop=1;jettySize=auto;html=1;fontSize=12;startSize=8;endSize=8;" edge="1" parent="1" source="e_6_paFqFRzDJT7VqNRb-4" target="e_6_paFqFRzDJT7VqNRb-7">
          <mxGeometry relative="1" as="geometry" />
        </mxCell>
        <mxCell id="e_6_paFqFRzDJT7VqNRb-51" style="edgeStyle=none;curved=1;rounded=0;orthogonalLoop=1;jettySize=auto;html=1;fontSize=12;startSize=8;endSize=8;" edge="1" parent="1" source="e_6_paFqFRzDJT7VqNRb-4" target="e_6_paFqFRzDJT7VqNRb-9">
          <mxGeometry relative="1" as="geometry" />
        </mxCell>
        <mxCell id="e_6_paFqFRzDJT7VqNRb-52" style="edgeStyle=none;curved=1;rounded=0;orthogonalLoop=1;jettySize=auto;html=1;fontSize=12;startSize=8;endSize=8;" edge="1" parent="1" source="e_6_paFqFRzDJT7VqNRb-4" target="e_6_paFqFRzDJT7VqNRb-11">
          <mxGeometry relative="1" as="geometry" />
        </mxCell>
        <mxCell id="e_6_paFqFRzDJT7VqNRb-53" style="edgeStyle=none;curved=1;rounded=0;orthogonalLoop=1;jettySize=auto;html=1;entryX=0;entryY=0;entryDx=0;entryDy=0;fontSize=12;startSize=8;endSize=8;" edge="1" parent="1" source="e_6_paFqFRzDJT7VqNRb-4" target="e_6_paFqFRzDJT7VqNRb-13">
          <mxGeometry relative="1" as="geometry" />
        </mxCell>
        <mxCell id="e_6_paFqFRzDJT7VqNRb-54" style="edgeStyle=none;curved=1;rounded=0;orthogonalLoop=1;jettySize=auto;html=1;entryX=0;entryY=0;entryDx=0;entryDy=0;fontSize=12;startSize=8;endSize=8;" edge="1" parent="1" source="e_6_paFqFRzDJT7VqNRb-4" target="e_6_paFqFRzDJT7VqNRb-15">
          <mxGeometry relative="1" as="geometry" />
        </mxCell>
        <mxCell id="e_6_paFqFRzDJT7VqNRb-55" style="edgeStyle=none;curved=1;rounded=0;orthogonalLoop=1;jettySize=auto;html=1;entryX=0;entryY=0;entryDx=0;entryDy=0;fontSize=12;startSize=8;endSize=8;" edge="1" parent="1" source="e_6_paFqFRzDJT7VqNRb-4" target="e_6_paFqFRzDJT7VqNRb-17">
          <mxGeometry relative="1" as="geometry" />
        </mxCell>
        <mxCell id="e_6_paFqFRzDJT7VqNRb-60" style="edgeStyle=none;curved=1;rounded=0;orthogonalLoop=1;jettySize=auto;html=1;entryX=0;entryY=0;entryDx=0;entryDy=0;fontSize=12;startSize=8;endSize=8;" edge="1" parent="1" source="e_6_paFqFRzDJT7VqNRb-4" target="e_6_paFqFRzDJT7VqNRb-56">
          <mxGeometry relative="1" as="geometry" />
        </mxCell>
        <mxCell id="e_6_paFqFRzDJT7VqNRb-61" style="edgeStyle=none;curved=1;rounded=0;orthogonalLoop=1;jettySize=auto;html=1;entryX=0;entryY=0;entryDx=0;entryDy=0;fontSize=12;startSize=8;endSize=8;" edge="1" parent="1" source="e_6_paFqFRzDJT7VqNRb-4" target="e_6_paFqFRzDJT7VqNRb-58">
          <mxGeometry relative="1" as="geometry" />
        </mxCell>
        <mxCell id="e_6_paFqFRzDJT7VqNRb-4" value="Project/" style="text;html=1;align=center;verticalAlign=middle;resizable=0;points=[];autosize=1;strokeColor=none;fillColor=none;fontSize=16;" vertex="1" parent="1">
          <mxGeometry x="336.05" y="-299" width="72" height="31" as="geometry" />
        </mxCell>
        <mxCell id="e_6_paFqFRzDJT7VqNRb-5" value="" style="shape=image;verticalLabelPosition=bottom;labelBackgroundColor=default;verticalAlign=top;aspect=fixed;imageAspect=0;image=https://imgs.search.brave.com/qaBwOZfYAqEolkYkvVw44lUgN6bMS3bjYQJhOxt_rzA/rs:fit:860:0:0/g:ce/aHR0cHM6Ly9pbWFn/ZXMudmV4ZWxzLmNv/bS9tZWRpYS91c2Vy/cy8zLzI3NjY2MS9p/c29sYXRlZC9wcmV2/aWV3LzYxNGZhMmY2/MDAwZTgxMmNiMDEz/YjgyZDVlZDBlYjIx/LWNhcnBldGEtYXp1/bC1jdWFkcmljdWxh/ZGEucG5n;" vertex="1" parent="1">
          <mxGeometry x="-198.5" y="-154" width="54" height="54" as="geometry" />
        </mxCell>
        <mxCell id="e_6_paFqFRzDJT7VqNRb-92" style="edgeStyle=none;curved=1;rounded=0;orthogonalLoop=1;jettySize=auto;html=1;fontSize=12;startSize=8;endSize=8;" edge="1" parent="1" source="e_6_paFqFRzDJT7VqNRb-6" target="e_6_paFqFRzDJT7VqNRb-62">
          <mxGeometry relative="1" as="geometry">
            <Array as="points">
              <mxPoint x="-191" y="-28" />
            </Array>
          </mxGeometry>
        </mxCell>
        <mxCell id="e_6_paFqFRzDJT7VqNRb-94" style="edgeStyle=none;curved=1;rounded=0;orthogonalLoop=1;jettySize=auto;html=1;entryX=0;entryY=0.5;entryDx=0;entryDy=0;fontSize=12;startSize=8;endSize=8;" edge="1" parent="1" source="e_6_paFqFRzDJT7VqNRb-6" target="e_6_paFqFRzDJT7VqNRb-64">
          <mxGeometry relative="1" as="geometry">
            <Array as="points">
              <mxPoint x="-200" y="35" />
            </Array>
          </mxGeometry>
        </mxCell>
        <mxCell id="e_6_paFqFRzDJT7VqNRb-95" style="edgeStyle=none;curved=1;rounded=0;orthogonalLoop=1;jettySize=auto;html=1;entryX=0;entryY=0;entryDx=0;entryDy=0;fontSize=12;startSize=8;endSize=8;" edge="1" parent="1" source="e_6_paFqFRzDJT7VqNRb-6" target="e_6_paFqFRzDJT7VqNRb-66">
          <mxGeometry relative="1" as="geometry">
            <Array as="points">
              <mxPoint x="-200" y="39" />
            </Array>
          </mxGeometry>
        </mxCell>
        <mxCell id="e_6_paFqFRzDJT7VqNRb-96" style="edgeStyle=none;curved=1;rounded=0;orthogonalLoop=1;jettySize=auto;html=1;entryX=0;entryY=0;entryDx=0;entryDy=0;fontSize=12;startSize=8;endSize=8;" edge="1" parent="1" source="e_6_paFqFRzDJT7VqNRb-6" target="e_6_paFqFRzDJT7VqNRb-68">
          <mxGeometry relative="1" as="geometry">
            <Array as="points">
              <mxPoint x="-204" y="135" />
            </Array>
          </mxGeometry>
        </mxCell>
        <mxCell id="e_6_paFqFRzDJT7VqNRb-97" style="edgeStyle=none;curved=1;rounded=0;orthogonalLoop=1;jettySize=auto;html=1;entryX=0;entryY=0;entryDx=0;entryDy=0;fontSize=12;startSize=8;endSize=8;" edge="1" parent="1" source="e_6_paFqFRzDJT7VqNRb-6" target="e_6_paFqFRzDJT7VqNRb-70">
          <mxGeometry relative="1" as="geometry">
            <Array as="points">
              <mxPoint x="-206" y="140" />
            </Array>
          </mxGeometry>
        </mxCell>
        <mxCell id="e_6_paFqFRzDJT7VqNRb-98" style="edgeStyle=none;curved=1;rounded=0;orthogonalLoop=1;jettySize=auto;html=1;entryX=0;entryY=0;entryDx=0;entryDy=0;fontSize=12;startSize=8;endSize=8;" edge="1" parent="1" source="e_6_paFqFRzDJT7VqNRb-6" target="e_6_paFqFRzDJT7VqNRb-72">
          <mxGeometry relative="1" as="geometry">
            <Array as="points">
              <mxPoint x="-205" y="161" />
            </Array>
          </mxGeometry>
        </mxCell>
        <mxCell id="e_6_paFqFRzDJT7VqNRb-99" style="edgeStyle=none;curved=1;rounded=0;orthogonalLoop=1;jettySize=auto;html=1;entryX=0;entryY=0.25;entryDx=0;entryDy=0;fontSize=12;startSize=8;endSize=8;" edge="1" parent="1" source="e_6_paFqFRzDJT7VqNRb-6" target="e_6_paFqFRzDJT7VqNRb-74">
          <mxGeometry relative="1" as="geometry">
            <Array as="points">
              <mxPoint x="-211" y="323" />
            </Array>
          </mxGeometry>
        </mxCell>
        <mxCell id="e_6_paFqFRzDJT7VqNRb-6" value="AcontecimientosHistoricos/" style="text;html=1;align=center;verticalAlign=middle;resizable=0;points=[];autosize=1;strokeColor=none;fillColor=none;fontSize=16;" vertex="1" parent="1">
          <mxGeometry x="-276" y="-104" width="210" height="31" as="geometry" />
        </mxCell>
        <mxCell id="e_6_paFqFRzDJT7VqNRb-7" value="" style="shape=image;verticalLabelPosition=bottom;labelBackgroundColor=default;verticalAlign=top;aspect=fixed;imageAspect=0;image=https://imgs.search.brave.com/qaBwOZfYAqEolkYkvVw44lUgN6bMS3bjYQJhOxt_rzA/rs:fit:860:0:0/g:ce/aHR0cHM6Ly9pbWFn/ZXMudmV4ZWxzLmNv/bS9tZWRpYS91c2Vy/cy8zLzI3NjY2MS9p/c29sYXRlZC9wcmV2/aWV3LzYxNGZhMmY2/MDAwZTgxMmNiMDEz/YjgyZDVlZDBlYjIx/LWNhcnBldGEtYXp1/bC1jdWFkcmljdWxh/ZGEucG5n;" vertex="1" parent="1">
          <mxGeometry x="42.5" y="-154" width="54" height="54" as="geometry" />
        </mxCell>
        <mxCell id="e_6_paFqFRzDJT7VqNRb-33" style="edgeStyle=none;curved=1;rounded=0;orthogonalLoop=1;jettySize=auto;html=1;fontSize=12;startSize=8;endSize=8;" edge="1" parent="1" source="e_6_paFqFRzDJT7VqNRb-8" target="e_6_paFqFRzDJT7VqNRb-27">
          <mxGeometry relative="1" as="geometry">
            <Array as="points">
              <mxPoint x="49" y="182" />
            </Array>
          </mxGeometry>
        </mxCell>
        <mxCell id="e_6_paFqFRzDJT7VqNRb-34" style="edgeStyle=none;curved=1;rounded=0;orthogonalLoop=1;jettySize=auto;html=1;fontSize=12;startSize=8;endSize=8;" edge="1" parent="1" source="e_6_paFqFRzDJT7VqNRb-8" target="e_6_paFqFRzDJT7VqNRb-23">
          <mxGeometry relative="1" as="geometry">
            <Array as="points">
              <mxPoint x="46" y="148" />
            </Array>
          </mxGeometry>
        </mxCell>
        <mxCell id="e_6_paFqFRzDJT7VqNRb-35" style="edgeStyle=none;curved=1;rounded=0;orthogonalLoop=1;jettySize=auto;html=1;fontSize=12;startSize=8;endSize=8;" edge="1" parent="1" source="e_6_paFqFRzDJT7VqNRb-8" target="e_6_paFqFRzDJT7VqNRb-21">
          <mxGeometry relative="1" as="geometry">
            <Array as="points">
              <mxPoint x="53" y="65" />
            </Array>
          </mxGeometry>
        </mxCell>
        <mxCell id="e_6_paFqFRzDJT7VqNRb-36" style="edgeStyle=none;curved=1;rounded=0;orthogonalLoop=1;jettySize=auto;html=1;fontSize=12;startSize=8;endSize=8;" edge="1" parent="1" source="e_6_paFqFRzDJT7VqNRb-8" target="e_6_paFqFRzDJT7VqNRb-19">
          <mxGeometry relative="1" as="geometry">
            <Array as="points">
              <mxPoint x="63" y="-19" />
            </Array>
          </mxGeometry>
        </mxCell>
        <mxCell id="e_6_paFqFRzDJT7VqNRb-8" value="biblioteca/" style="text;html=1;align=center;verticalAlign=middle;resizable=0;points=[];autosize=1;strokeColor=none;fillColor=none;fontSize=16;" vertex="1" parent="1">
          <mxGeometry x="25" y="-104" width="90" height="31" as="geometry" />
        </mxCell>
        <mxCell id="e_6_paFqFRzDJT7VqNRb-9" value="" style="shape=image;verticalLabelPosition=bottom;labelBackgroundColor=default;verticalAlign=top;aspect=fixed;imageAspect=0;image=https://imgs.search.brave.com/qaBwOZfYAqEolkYkvVw44lUgN6bMS3bjYQJhOxt_rzA/rs:fit:860:0:0/g:ce/aHR0cHM6Ly9pbWFn/ZXMudmV4ZWxzLmNv/bS9tZWRpYS91c2Vy/cy8zLzI3NjY2MS9p/c29sYXRlZC9wcmV2/aWV3LzYxNGZhMmY2/MDAwZTgxMmNiMDEz/YjgyZDVlZDBlYjIx/LWNhcnBldGEtYXp1/bC1jdWFkcmljdWxh/ZGEucG5n;" vertex="1" parent="1">
          <mxGeometry x="173.5" y="-155" width="54" height="54" as="geometry" />
        </mxCell>
        <mxCell id="e_6_paFqFRzDJT7VqNRb-45" style="edgeStyle=none;curved=1;rounded=0;orthogonalLoop=1;jettySize=auto;html=1;fontSize=12;startSize=8;endSize=8;" edge="1" parent="1" source="e_6_paFqFRzDJT7VqNRb-10" target="e_6_paFqFRzDJT7VqNRb-37">
          <mxGeometry relative="1" as="geometry">
            <Array as="points">
              <mxPoint x="192" y="-12" />
            </Array>
          </mxGeometry>
        </mxCell>
        <mxCell id="e_6_paFqFRzDJT7VqNRb-10" value="buscador/" style="text;html=1;align=center;verticalAlign=middle;resizable=0;points=[];autosize=1;strokeColor=none;fillColor=none;fontSize=16;" vertex="1" parent="1">
          <mxGeometry x="157" y="-105" width="88" height="31" as="geometry" />
        </mxCell>
        <mxCell id="e_6_paFqFRzDJT7VqNRb-11" value="" style="shape=image;verticalLabelPosition=bottom;labelBackgroundColor=default;verticalAlign=top;aspect=fixed;imageAspect=0;image=https://imgs.search.brave.com/qaBwOZfYAqEolkYkvVw44lUgN6bMS3bjYQJhOxt_rzA/rs:fit:860:0:0/g:ce/aHR0cHM6Ly9pbWFn/ZXMudmV4ZWxzLmNv/bS9tZWRpYS91c2Vy/cy8zLzI3NjY2MS9p/c29sYXRlZC9wcmV2/aWV3LzYxNGZhMmY2/MDAwZTgxMmNiMDEz/YjgyZDVlZDBlYjIx/LWNhcnBldGEtYXp1/bC1jdWFkcmljdWxh/ZGEucG5n;" vertex="1" parent="1">
          <mxGeometry x="294" y="-154" width="54" height="54" as="geometry" />
        </mxCell>
        <mxCell id="e_6_paFqFRzDJT7VqNRb-46" style="edgeStyle=none;curved=1;rounded=0;orthogonalLoop=1;jettySize=auto;html=1;fontSize=12;startSize=8;endSize=8;" edge="1" parent="1" source="e_6_paFqFRzDJT7VqNRb-12" target="e_6_paFqFRzDJT7VqNRb-39">
          <mxGeometry relative="1" as="geometry">
            <Array as="points">
              <mxPoint x="317" y="-22" />
            </Array>
          </mxGeometry>
        </mxCell>
        <mxCell id="e_6_paFqFRzDJT7VqNRb-12" value="foro/" style="text;html=1;align=center;verticalAlign=middle;resizable=0;points=[];autosize=1;strokeColor=none;fillColor=none;fontSize=16;" vertex="1" parent="1">
          <mxGeometry x="296.5" y="-104" width="50" height="31" as="geometry" />
        </mxCell>
        <mxCell id="e_6_paFqFRzDJT7VqNRb-13" value="" style="shape=image;verticalLabelPosition=bottom;labelBackgroundColor=default;verticalAlign=top;aspect=fixed;imageAspect=0;image=https://imgs.search.brave.com/qaBwOZfYAqEolkYkvVw44lUgN6bMS3bjYQJhOxt_rzA/rs:fit:860:0:0/g:ce/aHR0cHM6Ly9pbWFn/ZXMudmV4ZWxzLmNv/bS9tZWRpYS91c2Vy/cy8zLzI3NjY2MS9p/c29sYXRlZC9wcmV2/aWV3LzYxNGZhMmY2/MDAwZTgxMmNiMDEz/YjgyZDVlZDBlYjIx/LWNhcnBldGEtYXp1/bC1jdWFkcmljdWxh/ZGEucG5n;" vertex="1" parent="1">
          <mxGeometry x="394.5" y="-154" width="54" height="54" as="geometry" />
        </mxCell>
        <mxCell id="e_6_paFqFRzDJT7VqNRb-88" style="edgeStyle=none;curved=1;rounded=0;orthogonalLoop=1;jettySize=auto;html=1;fontSize=12;startSize=8;endSize=8;" edge="1" parent="1" source="e_6_paFqFRzDJT7VqNRb-14" target="e_6_paFqFRzDJT7VqNRb-86">
          <mxGeometry relative="1" as="geometry">
            <Array as="points">
              <mxPoint x="415" y="-20" />
            </Array>
          </mxGeometry>
        </mxCell>
        <mxCell id="e_6_paFqFRzDJT7VqNRb-14" value="images/" style="text;html=1;align=center;verticalAlign=middle;resizable=0;points=[];autosize=1;strokeColor=none;fillColor=none;fontSize=16;" vertex="1" parent="1">
          <mxGeometry x="385" y="-104" width="74" height="31" as="geometry" />
        </mxCell>
        <mxCell id="e_6_paFqFRzDJT7VqNRb-15" value="" style="shape=image;verticalLabelPosition=bottom;labelBackgroundColor=default;verticalAlign=top;aspect=fixed;imageAspect=0;image=https://imgs.search.brave.com/qaBwOZfYAqEolkYkvVw44lUgN6bMS3bjYQJhOxt_rzA/rs:fit:860:0:0/g:ce/aHR0cHM6Ly9pbWFn/ZXMudmV4ZWxzLmNv/bS9tZWRpYS91c2Vy/cy8zLzI3NjY2MS9p/c29sYXRlZC9wcmV2/aWV3LzYxNGZhMmY2/MDAwZTgxMmNiMDEz/YjgyZDVlZDBlYjIx/LWNhcnBldGEtYXp1/bC1jdWFkcmljdWxh/ZGEucG5n;" vertex="1" parent="1">
          <mxGeometry x="496.5" y="-156" width="54" height="54" as="geometry" />
        </mxCell>
        <mxCell id="e_6_paFqFRzDJT7VqNRb-47" style="edgeStyle=none;curved=1;rounded=0;orthogonalLoop=1;jettySize=auto;html=1;fontSize=12;startSize=8;endSize=8;" edge="1" parent="1" source="e_6_paFqFRzDJT7VqNRb-16" target="e_6_paFqFRzDJT7VqNRb-41">
          <mxGeometry relative="1" as="geometry">
            <Array as="points">
              <mxPoint x="507" y="-14" />
            </Array>
          </mxGeometry>
        </mxCell>
        <mxCell id="e_6_paFqFRzDJT7VqNRb-16" value="login&lt;span style=&quot;background-color: initial;&quot;&gt;/&lt;/span&gt;" style="text;html=1;align=center;verticalAlign=middle;resizable=0;points=[];autosize=1;strokeColor=none;fillColor=none;fontSize=16;" vertex="1" parent="1">
          <mxGeometry x="496" y="-105" width="56" height="31" as="geometry" />
        </mxCell>
        <mxCell id="e_6_paFqFRzDJT7VqNRb-17" value="" style="shape=image;verticalLabelPosition=bottom;labelBackgroundColor=default;verticalAlign=top;aspect=fixed;imageAspect=0;image=https://imgs.search.brave.com/qaBwOZfYAqEolkYkvVw44lUgN6bMS3bjYQJhOxt_rzA/rs:fit:860:0:0/g:ce/aHR0cHM6Ly9pbWFn/ZXMudmV4ZWxzLmNv/bS9tZWRpYS91c2Vy/cy8zLzI3NjY2MS9p/c29sYXRlZC9wcmV2/aWV3LzYxNGZhMmY2/MDAwZTgxMmNiMDEz/YjgyZDVlZDBlYjIx/LWNhcnBldGEtYXp1/bC1jdWFkcmljdWxh/ZGEucG5n;" vertex="1" parent="1">
          <mxGeometry x="584" y="-156" width="54" height="54" as="geometry" />
        </mxCell>
        <mxCell id="e_6_paFqFRzDJT7VqNRb-48" style="edgeStyle=none;curved=1;rounded=0;orthogonalLoop=1;jettySize=auto;html=1;fontSize=12;startSize=8;endSize=8;" edge="1" parent="1" source="e_6_paFqFRzDJT7VqNRb-18" target="e_6_paFqFRzDJT7VqNRb-43">
          <mxGeometry relative="1" as="geometry">
            <Array as="points">
              <mxPoint x="613" y="-15" />
            </Array>
          </mxGeometry>
        </mxCell>
        <mxCell id="e_6_paFqFRzDJT7VqNRb-18" value="mapa/" style="text;html=1;align=center;verticalAlign=middle;resizable=0;points=[];autosize=1;strokeColor=none;fillColor=none;fontSize=16;" vertex="1" parent="1">
          <mxGeometry x="580" y="-105" width="62" height="31" as="geometry" />
        </mxCell>
        <mxCell id="e_6_paFqFRzDJT7VqNRb-19" value="" style="shape=image;verticalLabelPosition=bottom;labelBackgroundColor=default;verticalAlign=top;aspect=fixed;imageAspect=0;image=https://imgs.search.brave.com/pSyHzBEH8W2UP1MOtRpg9VL4QzRK4JtGxKLskLUuh6U/rs:fit:860:0:0/g:ce/aHR0cHM6Ly93d3cu/Y29udmVydGVyMzY1/LmNvbS9pbWFnZXMv/c3RlcHMvY29udmVy/dGVyL0hUTUwlMjBG/aWxlLnBuZw;" vertex="1" parent="1">
          <mxGeometry x="96.5" y="-47" width="42.41" height="50" as="geometry" />
        </mxCell>
        <mxCell id="e_6_paFqFRzDJT7VqNRb-20" value="&lt;font style=&quot;font-size: 10px;&quot;&gt;biblioteca.html&lt;/font&gt;" style="text;strokeColor=none;fillColor=none;html=1;align=center;verticalAlign=middle;whiteSpace=wrap;rounded=0;fontSize=16;" vertex="1" parent="1">
          <mxGeometry x="99.55" y="12" width="36.3" height="17" as="geometry" />
        </mxCell>
        <mxCell id="e_6_paFqFRzDJT7VqNRb-21" value="" style="shape=image;verticalLabelPosition=bottom;labelBackgroundColor=default;verticalAlign=top;aspect=fixed;imageAspect=0;image=https://imgs.search.brave.com/pSyHzBEH8W2UP1MOtRpg9VL4QzRK4JtGxKLskLUuh6U/rs:fit:860:0:0/g:ce/aHR0cHM6Ly93d3cu/Y29udmVydGVyMzY1/LmNvbS9pbWFnZXMv/c3RlcHMvY29udmVy/dGVyL0hUTUwlMjBG/aWxlLnBuZw;" vertex="1" parent="1">
          <mxGeometry x="96.5" y="48" width="42.41" height="50" as="geometry" />
        </mxCell>
        <mxCell id="e_6_paFqFRzDJT7VqNRb-22" value="&lt;font style=&quot;font-size: 10px;&quot;&gt;LibrosEA.html&lt;/font&gt;" style="text;strokeColor=none;fillColor=none;html=1;align=center;verticalAlign=middle;whiteSpace=wrap;rounded=0;fontSize=16;" vertex="1" parent="1">
          <mxGeometry x="99.55" y="107" width="36.3" height="17" as="geometry" />
        </mxCell>
        <mxCell id="e_6_paFqFRzDJT7VqNRb-23" value="" style="shape=image;verticalLabelPosition=bottom;labelBackgroundColor=default;verticalAlign=top;aspect=fixed;imageAspect=0;image=https://imgs.search.brave.com/pSyHzBEH8W2UP1MOtRpg9VL4QzRK4JtGxKLskLUuh6U/rs:fit:860:0:0/g:ce/aHR0cHM6Ly93d3cu/Y29udmVydGVyMzY1/LmNvbS9pbWFnZXMv/c3RlcHMvY29udmVy/dGVyL0hUTUwlMjBG/aWxlLnBuZw;" vertex="1" parent="1">
          <mxGeometry x="99.55" y="140" width="42.41" height="50" as="geometry" />
        </mxCell>
        <mxCell id="e_6_paFqFRzDJT7VqNRb-24" value="&lt;font style=&quot;font-size: 10px;&quot;&gt;LibrosEC.html&lt;/font&gt;" style="text;strokeColor=none;fillColor=none;html=1;align=center;verticalAlign=middle;whiteSpace=wrap;rounded=0;fontSize=16;" vertex="1" parent="1">
          <mxGeometry x="102.6" y="199" width="36.3" height="17" as="geometry" />
        </mxCell>
        <mxCell id="e_6_paFqFRzDJT7VqNRb-27" value="" style="shape=image;verticalLabelPosition=bottom;labelBackgroundColor=default;verticalAlign=top;aspect=fixed;imageAspect=0;image=https://imgs.search.brave.com/pSyHzBEH8W2UP1MOtRpg9VL4QzRK4JtGxKLskLUuh6U/rs:fit:860:0:0/g:ce/aHR0cHM6Ly93d3cu/Y29udmVydGVyMzY1/LmNvbS9pbWFnZXMv/c3RlcHMvY29udmVy/dGVyL0hUTUwlMjBG/aWxlLnBuZw;" vertex="1" parent="1">
          <mxGeometry x="99.55" y="225" width="42.41" height="50" as="geometry" />
        </mxCell>
        <mxCell id="e_6_paFqFRzDJT7VqNRb-28" value="&lt;font style=&quot;font-size: 10px;&quot;&gt;LibrosEM.html&lt;/font&gt;" style="text;strokeColor=none;fillColor=none;html=1;align=center;verticalAlign=middle;whiteSpace=wrap;rounded=0;fontSize=16;" vertex="1" parent="1">
          <mxGeometry x="102.60000000000001" y="284" width="36.3" height="17" as="geometry" />
        </mxCell>
        <mxCell id="e_6_paFqFRzDJT7VqNRb-29" value="" style="shape=image;verticalLabelPosition=bottom;labelBackgroundColor=default;verticalAlign=top;aspect=fixed;imageAspect=0;image=https://imgs.search.brave.com/pSyHzBEH8W2UP1MOtRpg9VL4QzRK4JtGxKLskLUuh6U/rs:fit:860:0:0/g:ce/aHR0cHM6Ly93d3cu/Y29udmVydGVyMzY1/LmNvbS9pbWFnZXMv/c3RlcHMvY29udmVy/dGVyL0hUTUwlMjBG/aWxlLnBuZw;" vertex="1" parent="1">
          <mxGeometry x="99.55" y="318" width="42.41" height="50" as="geometry" />
        </mxCell>
        <mxCell id="e_6_paFqFRzDJT7VqNRb-30" value="&lt;font style=&quot;font-size: 10px;&quot;&gt;LibrisEMed.html&lt;/font&gt;" style="text;strokeColor=none;fillColor=none;html=1;align=center;verticalAlign=middle;whiteSpace=wrap;rounded=0;fontSize=16;" vertex="1" parent="1">
          <mxGeometry x="102.60000000000001" y="377" width="36.3" height="17" as="geometry" />
        </mxCell>
        <mxCell id="e_6_paFqFRzDJT7VqNRb-32" value="" style="edgeStyle=none;orthogonalLoop=1;jettySize=auto;html=1;rounded=0;fontSize=12;startSize=8;endSize=8;curved=1;entryX=0;entryY=0.5;entryDx=0;entryDy=0;" edge="1" parent="1" source="e_6_paFqFRzDJT7VqNRb-8" target="e_6_paFqFRzDJT7VqNRb-29">
          <mxGeometry width="120" relative="1" as="geometry">
            <mxPoint x="231" y="107" as="sourcePoint" />
            <mxPoint x="74" y="364" as="targetPoint" />
            <Array as="points">
              <mxPoint x="43" y="364" />
            </Array>
          </mxGeometry>
        </mxCell>
        <mxCell id="e_6_paFqFRzDJT7VqNRb-37" value="" style="shape=image;verticalLabelPosition=bottom;labelBackgroundColor=default;verticalAlign=top;aspect=fixed;imageAspect=0;image=https://imgs.search.brave.com/pSyHzBEH8W2UP1MOtRpg9VL4QzRK4JtGxKLskLUuh6U/rs:fit:860:0:0/g:ce/aHR0cHM6Ly93d3cu/Y29udmVydGVyMzY1/LmNvbS9pbWFnZXMv/c3RlcHMvY29udmVy/dGVyL0hUTUwlMjBG/aWxlLnBuZw;" vertex="1" parent="1">
          <mxGeometry x="217" y="-47" width="42.41" height="50" as="geometry" />
        </mxCell>
        <mxCell id="e_6_paFqFRzDJT7VqNRb-38" value="&lt;font style=&quot;font-size: 10px;&quot;&gt;buscacor&lt;/font&gt;&lt;span style=&quot;font-size: 10px; background-color: initial;&quot;&gt;.html&lt;/span&gt;" style="text;strokeColor=none;fillColor=none;html=1;align=center;verticalAlign=middle;whiteSpace=wrap;rounded=0;fontSize=16;" vertex="1" parent="1">
          <mxGeometry x="220.05" y="12" width="36.3" height="17" as="geometry" />
        </mxCell>
        <mxCell id="e_6_paFqFRzDJT7VqNRb-39" value="" style="shape=image;verticalLabelPosition=bottom;labelBackgroundColor=default;verticalAlign=top;aspect=fixed;imageAspect=0;image=https://imgs.search.brave.com/pSyHzBEH8W2UP1MOtRpg9VL4QzRK4JtGxKLskLUuh6U/rs:fit:860:0:0/g:ce/aHR0cHM6Ly93d3cu/Y29udmVydGVyMzY1/LmNvbS9pbWFnZXMv/c3RlcHMvY29udmVy/dGVyL0hUTUwlMjBG/aWxlLnBuZw;" vertex="1" parent="1">
          <mxGeometry x="333" y="-47" width="42.41" height="50" as="geometry" />
        </mxCell>
        <mxCell id="e_6_paFqFRzDJT7VqNRb-40" value="&lt;font style=&quot;font-size: 10px;&quot;&gt;foro&lt;/font&gt;&lt;span style=&quot;font-size: 10px; background-color: initial;&quot;&gt;.html&lt;/span&gt;" style="text;strokeColor=none;fillColor=none;html=1;align=center;verticalAlign=middle;whiteSpace=wrap;rounded=0;fontSize=16;" vertex="1" parent="1">
          <mxGeometry x="336.05" y="12" width="36.3" height="17" as="geometry" />
        </mxCell>
        <mxCell id="e_6_paFqFRzDJT7VqNRb-41" value="" style="shape=image;verticalLabelPosition=bottom;labelBackgroundColor=default;verticalAlign=top;aspect=fixed;imageAspect=0;image=https://imgs.search.brave.com/pSyHzBEH8W2UP1MOtRpg9VL4QzRK4JtGxKLskLUuh6U/rs:fit:860:0:0/g:ce/aHR0cHM6Ly93d3cu/Y29udmVydGVyMzY1/LmNvbS9pbWFnZXMv/c3RlcHMvY29udmVy/dGVyL0hUTUwlMjBG/aWxlLnBuZw;" vertex="1" parent="1">
          <mxGeometry x="530" y="-47" width="42.41" height="50" as="geometry" />
        </mxCell>
        <mxCell id="e_6_paFqFRzDJT7VqNRb-42" value="&lt;font style=&quot;font-size: 10px;&quot;&gt;login&lt;/font&gt;&lt;span style=&quot;background-color: initial; font-size: 10px;&quot;&gt;.html&lt;/span&gt;" style="text;strokeColor=none;fillColor=none;html=1;align=center;verticalAlign=middle;whiteSpace=wrap;rounded=0;fontSize=16;" vertex="1" parent="1">
          <mxGeometry x="533.05" y="12" width="36.3" height="17" as="geometry" />
        </mxCell>
        <mxCell id="e_6_paFqFRzDJT7VqNRb-43" value="" style="shape=image;verticalLabelPosition=bottom;labelBackgroundColor=default;verticalAlign=top;aspect=fixed;imageAspect=0;image=https://imgs.search.brave.com/pSyHzBEH8W2UP1MOtRpg9VL4QzRK4JtGxKLskLUuh6U/rs:fit:860:0:0/g:ce/aHR0cHM6Ly93d3cu/Y29udmVydGVyMzY1/LmNvbS9pbWFnZXMv/c3RlcHMvY29udmVy/dGVyL0hUTUwlMjBG/aWxlLnBuZw;" vertex="1" parent="1">
          <mxGeometry x="638" y="-47" width="42.41" height="50" as="geometry" />
        </mxCell>
        <mxCell id="e_6_paFqFRzDJT7VqNRb-44" value="&lt;font style=&quot;font-size: 10px;&quot;&gt;mapa&lt;/font&gt;&lt;span style=&quot;background-color: initial; font-size: 10px;&quot;&gt;.html&lt;/span&gt;" style="text;strokeColor=none;fillColor=none;html=1;align=center;verticalAlign=middle;whiteSpace=wrap;rounded=0;fontSize=16;" vertex="1" parent="1">
          <mxGeometry x="641.05" y="12" width="36.3" height="17" as="geometry" />
        </mxCell>
        <mxCell id="e_6_paFqFRzDJT7VqNRb-56" value="" style="shape=image;verticalLabelPosition=bottom;labelBackgroundColor=default;verticalAlign=top;aspect=fixed;imageAspect=0;image=https://imgs.search.brave.com/pSyHzBEH8W2UP1MOtRpg9VL4QzRK4JtGxKLskLUuh6U/rs:fit:860:0:0/g:ce/aHR0cHM6Ly93d3cu/Y29udmVydGVyMzY1/LmNvbS9pbWFnZXMv/c3RlcHMvY29udmVy/dGVyL0hUTUwlMjBG/aWxlLnBuZw;" vertex="1" parent="1">
          <mxGeometry x="668" y="-149" width="42.41" height="50" as="geometry" />
        </mxCell>
        <mxCell id="e_6_paFqFRzDJT7VqNRb-57" value="&lt;font style=&quot;font-size: 10px;&quot;&gt;index&lt;/font&gt;&lt;span style=&quot;background-color: initial; font-size: 10px;&quot;&gt;.html&lt;/span&gt;" style="text;strokeColor=none;fillColor=none;html=1;align=center;verticalAlign=middle;whiteSpace=wrap;rounded=0;fontSize=16;" vertex="1" parent="1">
          <mxGeometry x="671.05" y="-90" width="36.3" height="17" as="geometry" />
        </mxCell>
        <mxCell id="e_6_paFqFRzDJT7VqNRb-58" value="" style="shape=image;verticalLabelPosition=bottom;labelBackgroundColor=default;verticalAlign=top;aspect=fixed;imageAspect=0;image=https://imgs.search.brave.com/pSyHzBEH8W2UP1MOtRpg9VL4QzRK4JtGxKLskLUuh6U/rs:fit:860:0:0/g:ce/aHR0cHM6Ly93d3cu/Y29udmVydGVyMzY1/LmNvbS9pbWFnZXMv/c3RlcHMvY29udmVy/dGVyL0hUTUwlMjBG/aWxlLnBuZw;" vertex="1" parent="1">
          <mxGeometry x="740" y="-149" width="42.41" height="50" as="geometry" />
        </mxCell>
        <mxCell id="e_6_paFqFRzDJT7VqNRb-59" value="&lt;span style=&quot;background-color: initial; font-size: 10px;&quot;&gt;sobreNosotros&lt;/span&gt;&lt;span style=&quot;background-color: initial; font-size: 10px;&quot;&gt;.html&lt;/span&gt;" style="text;strokeColor=none;fillColor=none;html=1;align=center;verticalAlign=middle;whiteSpace=wrap;rounded=0;fontSize=16;" vertex="1" parent="1">
          <mxGeometry x="743.05" y="-90" width="36.3" height="17" as="geometry" />
        </mxCell>
        <mxCell id="e_6_paFqFRzDJT7VqNRb-62" value="" style="shape=image;verticalLabelPosition=bottom;labelBackgroundColor=default;verticalAlign=top;aspect=fixed;imageAspect=0;image=https://imgs.search.brave.com/qaBwOZfYAqEolkYkvVw44lUgN6bMS3bjYQJhOxt_rzA/rs:fit:860:0:0/g:ce/aHR0cHM6Ly9pbWFn/ZXMudmV4ZWxzLmNv/bS9tZWRpYS91c2Vy/cy8zLzI3NjY2MS9p/c29sYXRlZC9wcmV2/aWV3LzYxNGZhMmY2/MDAwZTgxMmNiMDEz/YjgyZDVlZDBlYjIx/LWNhcnBldGEtYXp1/bC1jdWFkcmljdWxh/ZGEucG5n;" vertex="1" parent="1">
          <mxGeometry x="-127" y="-69" width="54" height="54" as="geometry" />
        </mxCell>
        <mxCell id="e_6_paFqFRzDJT7VqNRb-63" value="biblioteca/" style="text;html=1;align=center;verticalAlign=middle;resizable=0;points=[];autosize=1;strokeColor=none;fillColor=none;fontSize=16;" vertex="1" parent="1">
          <mxGeometry x="-144.5" y="-19" width="90" height="31" as="geometry" />
        </mxCell>
        <mxCell id="e_6_paFqFRzDJT7VqNRb-64" value="" style="shape=image;verticalLabelPosition=bottom;labelBackgroundColor=default;verticalAlign=top;aspect=fixed;imageAspect=0;image=https://imgs.search.brave.com/qaBwOZfYAqEolkYkvVw44lUgN6bMS3bjYQJhOxt_rzA/rs:fit:860:0:0/g:ce/aHR0cHM6Ly9pbWFn/ZXMudmV4ZWxzLmNv/bS9tZWRpYS91c2Vy/cy8zLzI3NjY2MS9p/c29sYXRlZC9wcmV2/aWV3LzYxNGZhMmY2/MDAwZTgxMmNiMDEz/YjgyZDVlZDBlYjIx/LWNhcnBldGEtYXp1/bC1jdWFkcmljdWxh/ZGEucG5n;" vertex="1" parent="1">
          <mxGeometry x="-127" y="20" width="54" height="54" as="geometry" />
        </mxCell>
        <mxCell id="e_6_paFqFRzDJT7VqNRb-65" value="biblioteca/" style="text;html=1;align=center;verticalAlign=middle;resizable=0;points=[];autosize=1;strokeColor=none;fillColor=none;fontSize=16;" vertex="1" parent="1">
          <mxGeometry x="-144.5" y="70" width="90" height="31" as="geometry" />
        </mxCell>
        <mxCell id="e_6_paFqFRzDJT7VqNRb-66" value="" style="shape=image;verticalLabelPosition=bottom;labelBackgroundColor=default;verticalAlign=top;aspect=fixed;imageAspect=0;image=https://imgs.search.brave.com/qaBwOZfYAqEolkYkvVw44lUgN6bMS3bjYQJhOxt_rzA/rs:fit:860:0:0/g:ce/aHR0cHM6Ly9pbWFn/ZXMudmV4ZWxzLmNv/bS9tZWRpYS91c2Vy/cy8zLzI3NjY2MS9p/c29sYXRlZC9wcmV2/aWV3LzYxNGZhMmY2/MDAwZTgxMmNiMDEz/YjgyZDVlZDBlYjIx/LWNhcnBldGEtYXp1/bC1jdWFkcmljdWxh/ZGEucG5n;" vertex="1" parent="1">
          <mxGeometry x="-127.5" y="109" width="54" height="54" as="geometry" />
        </mxCell>
        <mxCell id="e_6_paFqFRzDJT7VqNRb-67" value="biblioteca/" style="text;html=1;align=center;verticalAlign=middle;resizable=0;points=[];autosize=1;strokeColor=none;fillColor=none;fontSize=16;" vertex="1" parent="1">
          <mxGeometry x="-145" y="159" width="90" height="31" as="geometry" />
        </mxCell>
        <mxCell id="e_6_paFqFRzDJT7VqNRb-68" value="" style="shape=image;verticalLabelPosition=bottom;labelBackgroundColor=default;verticalAlign=top;aspect=fixed;imageAspect=0;image=https://imgs.search.brave.com/pSyHzBEH8W2UP1MOtRpg9VL4QzRK4JtGxKLskLUuh6U/rs:fit:860:0:0/g:ce/aHR0cHM6Ly93d3cu/Y29udmVydGVyMzY1/LmNvbS9pbWFnZXMv/c3RlcHMvY29udmVy/dGVyL0hUTUwlMjBG/aWxlLnBuZw;" vertex="1" parent="1">
          <mxGeometry x="-123.22999999999999" y="199" width="42.41" height="50" as="geometry" />
        </mxCell>
        <mxCell id="e_6_paFqFRzDJT7VqNRb-69" value="&lt;font style=&quot;font-size: 10px;&quot;&gt;AH.html&lt;/font&gt;" style="text;strokeColor=none;fillColor=none;html=1;align=center;verticalAlign=middle;whiteSpace=wrap;rounded=0;fontSize=16;" vertex="1" parent="1">
          <mxGeometry x="-120.17999999999999" y="258" width="36.3" height="17" as="geometry" />
        </mxCell>
        <mxCell id="e_6_paFqFRzDJT7VqNRb-70" value="" style="shape=image;verticalLabelPosition=bottom;labelBackgroundColor=default;verticalAlign=top;aspect=fixed;imageAspect=0;image=https://imgs.search.brave.com/pSyHzBEH8W2UP1MOtRpg9VL4QzRK4JtGxKLskLUuh6U/rs:fit:860:0:0/g:ce/aHR0cHM6Ly93d3cu/Y29udmVydGVyMzY1/LmNvbS9pbWFnZXMv/c3RlcHMvY29udmVy/dGVyL0hUTUwlMjBG/aWxlLnBuZw;" vertex="1" parent="1">
          <mxGeometry x="-120.17999999999999" y="291" width="42.41" height="50" as="geometry" />
        </mxCell>
        <mxCell id="e_6_paFqFRzDJT7VqNRb-71" value="&lt;font style=&quot;font-size: 10px;&quot;&gt;batallas&lt;/font&gt;&lt;span style=&quot;font-size: 10px; background-color: initial;&quot;&gt;.html&lt;/span&gt;" style="text;strokeColor=none;fillColor=none;html=1;align=center;verticalAlign=middle;whiteSpace=wrap;rounded=0;fontSize=16;" vertex="1" parent="1">
          <mxGeometry x="-117.13" y="350" width="36.3" height="17" as="geometry" />
        </mxCell>
        <mxCell id="e_6_paFqFRzDJT7VqNRb-72" value="" style="shape=image;verticalLabelPosition=bottom;labelBackgroundColor=default;verticalAlign=top;aspect=fixed;imageAspect=0;image=https://imgs.search.brave.com/pSyHzBEH8W2UP1MOtRpg9VL4QzRK4JtGxKLskLUuh6U/rs:fit:860:0:0/g:ce/aHR0cHM6Ly93d3cu/Y29udmVydGVyMzY1/LmNvbS9pbWFnZXMv/c3RlcHMvY29udmVy/dGVyL0hUTUwlMjBG/aWxlLnBuZw;" vertex="1" parent="1">
          <mxGeometry x="-120.17999999999999" y="376" width="42.41" height="50" as="geometry" />
        </mxCell>
        <mxCell id="e_6_paFqFRzDJT7VqNRb-73" value="&lt;font style=&quot;font-size: 10px;&quot;&gt;guerras.html&lt;/font&gt;" style="text;strokeColor=none;fillColor=none;html=1;align=center;verticalAlign=middle;whiteSpace=wrap;rounded=0;fontSize=16;" vertex="1" parent="1">
          <mxGeometry x="-117.12999999999998" y="435" width="36.3" height="17" as="geometry" />
        </mxCell>
        <mxCell id="e_6_paFqFRzDJT7VqNRb-74" value="" style="shape=image;verticalLabelPosition=bottom;labelBackgroundColor=default;verticalAlign=top;aspect=fixed;imageAspect=0;image=https://imgs.search.brave.com/pSyHzBEH8W2UP1MOtRpg9VL4QzRK4JtGxKLskLUuh6U/rs:fit:860:0:0/g:ce/aHR0cHM6Ly93d3cu/Y29udmVydGVyMzY1/LmNvbS9pbWFnZXMv/c3RlcHMvY29udmVy/dGVyL0hUTUwlMjBG/aWxlLnBuZw;" vertex="1" parent="1">
          <mxGeometry x="-120.17999999999999" y="469" width="42.41" height="50" as="geometry" />
        </mxCell>
        <mxCell id="e_6_paFqFRzDJT7VqNRb-75" value="&lt;font style=&quot;font-size: 10px;&quot;&gt;pernoajesEmblematicos&lt;/font&gt;&lt;span style=&quot;background-color: initial; font-size: 10px;&quot;&gt;.html&lt;/span&gt;" style="text;strokeColor=none;fillColor=none;html=1;align=center;verticalAlign=middle;whiteSpace=wrap;rounded=0;fontSize=16;" vertex="1" parent="1">
          <mxGeometry x="-117.12999999999998" y="528" width="36.3" height="17" as="geometry" />
        </mxCell>
        <mxCell id="e_6_paFqFRzDJT7VqNRb-76" value="" style="shape=waypoint;sketch=0;size=6;pointerEvents=1;points=[];fillColor=none;resizable=0;rotatable=0;perimeter=centerPerimeter;snapToPoint=1;" vertex="1" parent="1">
          <mxGeometry x="-50" y="-39" width="20" height="20" as="geometry" />
        </mxCell>
        <mxCell id="e_6_paFqFRzDJT7VqNRb-77" value="" style="shape=waypoint;sketch=0;size=6;pointerEvents=1;points=[];fillColor=none;resizable=0;rotatable=0;perimeter=centerPerimeter;snapToPoint=1;" vertex="1" parent="1">
          <mxGeometry x="-40" y="-39" width="20" height="20" as="geometry" />
        </mxCell>
        <mxCell id="e_6_paFqFRzDJT7VqNRb-78" value="" style="shape=waypoint;sketch=0;size=6;pointerEvents=1;points=[];fillColor=none;resizable=0;rotatable=0;perimeter=centerPerimeter;snapToPoint=1;" vertex="1" parent="1">
          <mxGeometry x="-28" y="-39" width="20" height="20" as="geometry" />
        </mxCell>
        <mxCell id="e_6_paFqFRzDJT7VqNRb-79" value="" style="shape=waypoint;sketch=0;size=6;pointerEvents=1;points=[];fillColor=none;resizable=0;rotatable=0;perimeter=centerPerimeter;snapToPoint=1;" vertex="1" parent="1">
          <mxGeometry x="-48" y="45" width="20" height="20" as="geometry" />
        </mxCell>
        <mxCell id="e_6_paFqFRzDJT7VqNRb-80" value="" style="shape=waypoint;sketch=0;size=6;pointerEvents=1;points=[];fillColor=none;resizable=0;rotatable=0;perimeter=centerPerimeter;snapToPoint=1;" vertex="1" parent="1">
          <mxGeometry x="-38" y="45" width="20" height="20" as="geometry" />
        </mxCell>
        <mxCell id="e_6_paFqFRzDJT7VqNRb-81" value="" style="shape=waypoint;sketch=0;size=6;pointerEvents=1;points=[];fillColor=none;resizable=0;rotatable=0;perimeter=centerPerimeter;snapToPoint=1;" vertex="1" parent="1">
          <mxGeometry x="-26" y="45" width="20" height="20" as="geometry" />
        </mxCell>
        <mxCell id="e_6_paFqFRzDJT7VqNRb-82" value="" style="shape=waypoint;sketch=0;size=6;pointerEvents=1;points=[];fillColor=none;resizable=0;rotatable=0;perimeter=centerPerimeter;snapToPoint=1;" vertex="1" parent="1">
          <mxGeometry x="-48" y="134" width="20" height="20" as="geometry" />
        </mxCell>
        <mxCell id="e_6_paFqFRzDJT7VqNRb-83" value="" style="shape=waypoint;sketch=0;size=6;pointerEvents=1;points=[];fillColor=none;resizable=0;rotatable=0;perimeter=centerPerimeter;snapToPoint=1;" vertex="1" parent="1">
          <mxGeometry x="-38" y="134" width="20" height="20" as="geometry" />
        </mxCell>
        <mxCell id="e_6_paFqFRzDJT7VqNRb-84" value="" style="shape=waypoint;sketch=0;size=6;pointerEvents=1;points=[];fillColor=none;resizable=0;rotatable=0;perimeter=centerPerimeter;snapToPoint=1;" vertex="1" parent="1">
          <mxGeometry x="-26" y="134" width="20" height="20" as="geometry" />
        </mxCell>
        <mxCell id="e_6_paFqFRzDJT7VqNRb-86" value="" style="shape=image;verticalLabelPosition=bottom;labelBackgroundColor=default;verticalAlign=top;aspect=fixed;imageAspect=0;image=https://cdn-icons-png.flaticon.com/128/2659/2659360.png;" vertex="1" parent="1">
          <mxGeometry x="443.11" y="-46.89" width="52.89" height="52.89" as="geometry" />
        </mxCell>
        <mxCell id="e_6_paFqFRzDJT7VqNRb-87" value="&lt;span style=&quot;font-size: 10px;&quot;&gt;austerlitz.jpg&lt;/span&gt;" style="text;strokeColor=none;fillColor=none;html=1;align=center;verticalAlign=middle;whiteSpace=wrap;rounded=0;fontSize=16;" vertex="1" parent="1">
          <mxGeometry x="451.40999999999997" y="12" width="36.3" height="17" as="geometry" />
        </mxCell>
        <mxCell id="e_6_paFqFRzDJT7VqNRb-89" value="" style="shape=waypoint;sketch=0;size=6;pointerEvents=1;points=[];fillColor=none;resizable=0;rotatable=0;perimeter=centerPerimeter;snapToPoint=1;" vertex="1" parent="1">
          <mxGeometry x="448.5" y="39" width="20" height="20" as="geometry" />
        </mxCell>
        <mxCell id="e_6_paFqFRzDJT7VqNRb-90" value="" style="shape=waypoint;sketch=0;size=6;pointerEvents=1;points=[];fillColor=none;resizable=0;rotatable=0;perimeter=centerPerimeter;snapToPoint=1;" vertex="1" parent="1">
          <mxGeometry x="448.5" y="59" width="20" height="20" as="geometry" />
        </mxCell>
        <mxCell id="e_6_paFqFRzDJT7VqNRb-91" value="" style="shape=waypoint;sketch=0;size=6;pointerEvents=1;points=[];fillColor=none;resizable=0;rotatable=0;perimeter=centerPerimeter;snapToPoint=1;" vertex="1" parent="1">
          <mxGeometry x="448.5" y="81" width="20" height="20" as="geometry" />
        </mxCell>
      </root>
    </mxGraphModel>
  </diagram>
</mxfile>
